<svg width="22" height="21" viewBox="0 0 22 21" fill="none" xmlns="http://www.w3.org/2000/svg">
<path d="M11.0256 18.8333C15.8987 18.8333 19.8491 15.1023 19.8491 10.5C19.8491 5.89759 15.8987 2.16663 11.0256 2.16663C6.15245 2.16663 2.20203 5.89759 2.20203 10.5C2.20203 15.1023 6.15245 18.8333 11.0256 18.8333Z" stroke="#4AB1B3" stroke-width="2" stroke-linecap="round" stroke-linejoin="round"/>
<path d="M8.45801 7.99999C8.66545 7.44304 9.07491 6.97341 9.61385 6.67426C10.1528 6.37512 10.7864 6.26577 11.4026 6.36558C12.0187 6.46539 12.5776 6.76792 12.9801 7.21959C13.3827 7.67126 13.6031 8.24292 13.6021 8.83332C13.6021 10.5 10.9551 11.3333 10.9551 11.3333" stroke="#4AB1B3" stroke-width="2" stroke-linecap="round" stroke-linejoin="round"/>
<path d="M11.0256 14.6666H11.0346" stroke="#4AB1B3" stroke-width="2" stroke-linecap="round" stroke-linejoin="round"/>
</svg>
