<svg width="24" height="24" viewBox="0 0 24 24" fill="none" xmlns="http://www.w3.org/2000/svg">
<path d="M21.982 8.15036L19.7115 18.22C19.6087 18.676 19.2035 19 18.736 19H5.26425C4.79671 19 4.39157 18.676 4.28874 18.22L2.01823 8.15036C1.95466 7.89238 2.06037 7.62306 2.28822 7.46507C2.51679 7.30708 2.82321 7.29041 3.06892 7.42174L7.48952 9.77959L11.4051 4.29793C11.533 4.11927 11.7444 4.00861 11.9737 4.00062C12.2051 3.99128 12.423 4.08861 12.5637 4.25793L17.1557 9.76826L20.8892 7.44574C21.1327 7.29508 21.4506 7.29641 21.6913 7.45174C21.9327 7.60706 22.047 7.88438 21.982 8.15036Z" stroke="#4AB1B3" stroke-width="2"/>
<path d="M20 15H4" stroke="#4AB1B3" stroke-width="2"/>
</svg>
