<svg width="20" height="20" viewBox="0 0 20 20" fill="none" xmlns="http://www.w3.org/2000/svg">
<path d="M18 6H2C1.44772 6 1 6.44772 1 7V9C1 9.55228 1.44772 10 2 10H18C18.5523 10 19 9.55228 19 9V7C19 6.44772 18.5523 6 18 6Z" stroke="#4AB1B3" stroke-width="2" stroke-linecap="round" stroke-linejoin="round"/>
<path d="M10 6V19" stroke="#4AB1B3" stroke-width="2" stroke-linecap="round" stroke-linejoin="round"/>
<path d="M17 10V17C17 17.5304 16.7893 18.0391 16.4142 18.4142C16.0391 18.7893 15.5304 19 15 19H5C4.46957 19 3.96086 18.7893 3.58579 18.4142C3.21071 18.0391 3 17.5304 3 17V10" stroke="#4AB1B3" stroke-width="2" stroke-linecap="round" stroke-linejoin="round"/>
<path d="M5.5 6.00001C4.83696 6.00001 4.20107 5.73662 3.73223 5.26778C3.26339 4.79894 3 4.16305 3 3.50001C3 2.83697 3.26339 2.20108 3.73223 1.73224C4.20107 1.2634 4.83696 1.00001 5.5 1.00001C6.46469 0.983203 7.41003 1.45127 8.21274 2.34317C9.01545 3.23507 9.63828 4.50941 10 6.00001C10.3617 4.50941 10.9846 3.23507 11.7873 2.34317C12.59 1.45127 13.5353 0.983203 14.5 1.00001C15.163 1.00001 15.7989 1.2634 16.2678 1.73224C16.7366 2.20108 17 2.83697 17 3.50001C17 4.16305 16.7366 4.79894 16.2678 5.26778C15.7989 5.73662 15.163 6.00001 14.5 6.00001" stroke="#4AB1B3" stroke-width="2" stroke-linecap="round" stroke-linejoin="round"/>
</svg>
