<svg width="10" height="12" viewBox="0 0 10 12" fill="none" xmlns="http://www.w3.org/2000/svg">
<path fill-rule="evenodd" clip-rule="evenodd" d="M4.90909 12C4.90909 12 0 8.72727 0 4.90909C1.94009e-08 3.60712 0.517206 2.35847 1.43784 1.43784C2.35847 0.517206 3.60712 0 4.90909 0C6.21106 0 7.45971 0.517206 8.38034 1.43784C9.30098 2.35847 9.81818 3.60712 9.81818 4.90909C9.81818 8.72727 4.90909 12 4.90909 12ZM4.90909 6.54543C4.00535 6.54543 3.27273 5.81281 3.27273 4.90907C3.27273 4.00533 4.00535 3.27271 4.90909 3.27271C5.81283 3.27271 6.54546 4.00533 6.54546 4.90907C6.54546 5.81281 5.81283 6.54543 4.90909 6.54543Z" fill="#FF7D0D"/>
</svg>
