<svg width="24" height="25" viewBox="0 0 24 25" fill="none" xmlns="http://www.w3.org/2000/svg">
<path d="M10.2319 4.55862C10.6816 2.70507 13.3184 2.70507 13.7681 4.55862C13.8355 4.83708 13.9678 5.09567 14.1541 5.31335C14.3404 5.53102 14.5754 5.70164 14.8401 5.8113C15.1048 5.92096 15.3917 5.96658 15.6773 5.94443C15.963 5.92228 16.2394 5.833 16.484 5.68385C18.1127 4.69162 19.9779 6.55573 18.9857 8.18551C18.8367 8.43004 18.7476 8.70626 18.7255 8.99172C18.7034 9.27718 18.749 9.56382 18.8585 9.82836C18.968 10.0929 19.1384 10.3278 19.3559 10.5141C19.5733 10.7004 19.8316 10.8327 20.1098 10.9004C21.9634 11.3501 21.9634 13.9868 20.1098 14.4365C19.8314 14.504 19.5728 14.6362 19.3551 14.8225C19.1374 15.0088 18.9668 15.2439 18.8572 15.5086C18.7475 15.7733 18.7019 16.0601 18.724 16.3458C18.7462 16.6314 18.8355 16.9078 18.9846 17.1525C19.9768 18.7812 18.1127 20.6463 16.4829 19.6541C16.2384 19.5052 15.9622 19.416 15.6767 19.3939C15.3913 19.3718 15.1046 19.4174 14.8401 19.527C14.5756 19.6365 14.3406 19.8069 14.1543 20.0243C13.9681 20.2418 13.8357 20.5001 13.7681 20.7783C13.3184 22.6318 10.6816 22.6318 10.2319 20.7783C10.1645 20.4998 10.0322 20.2412 9.84592 20.0236C9.65962 19.8059 9.42456 19.6353 9.15987 19.5256C8.89517 19.416 8.60832 19.3703 8.32267 19.3925C8.03701 19.4146 7.76063 19.5039 7.516 19.6531C5.88728 20.6453 4.02211 18.7812 5.01433 17.1514C5.16327 16.9069 5.25241 16.6307 5.27451 16.3452C5.29661 16.0597 5.25103 15.7731 5.1415 15.5086C5.03196 15.244 4.86155 15.0091 4.64412 14.8228C4.42669 14.6365 4.16837 14.5042 3.89017 14.4365C2.03661 13.9868 2.03661 11.3501 3.89017 10.9004C4.16862 10.8329 4.42721 10.7007 4.64489 10.5144C4.86257 10.3281 5.03318 10.093 5.14284 9.82832C5.25251 9.56363 5.29812 9.27678 5.27597 8.99113C5.25382 8.70547 5.16454 8.42908 5.01539 8.18446C4.02317 6.55573 5.88728 4.69057 7.51705 5.68279C8.56839 6.32457 9.94061 5.75668 10.2319 4.55862Z" stroke="#4AB1B3" stroke-width="2" stroke-linecap="round" stroke-linejoin="round"/>
<path d="M12 15.8352C13.7489 15.8352 15.1667 14.4174 15.1667 12.6685C15.1667 10.9196 13.7489 9.50183 12 9.50183C10.2511 9.50183 8.83337 10.9196 8.83337 12.6685C8.83337 14.4174 10.2511 15.8352 12 15.8352Z" stroke="#4AB1B3" stroke-width="2" stroke-linecap="round" stroke-linejoin="round"/>
</svg>
